<?xml version="1.0" encoding="UTF-8" standalone="no"?>
<!DOCTYPE svg PUBLIC "-//W3C//DTD SVG 1.1//EN"
 "http://www.w3.org/Graphics/SVG/1.1/DTD/svg11.dtd">
<!-- Generated by graphviz version 2.36.0 (20140111.2315)
 -->
<!-- Title: classmap Pages: 1 -->
<svg width="413pt" height="116pt"
 viewBox="0.00 0.00 413.00 116.00" xmlns="http://www.w3.org/2000/svg" xmlns:xlink="http://www.w3.org/1999/xlink">
<g id="graph0" class="graph" transform="scale(1 1) rotate(0) translate(4 112)">
<title>classmap</title>
<polygon fill="white" stroke="none" points="-4,4 -4,-112 409,-112 409,4 -4,4"/>
<!-- Cast -->
<g id="node1" class="node"><title>Cast</title>
<polygon fill="none" stroke="black" points="177,-108 123,-108 123,-72 177,-72 177,-108"/>
<text text-anchor="middle" x="150" y="-86.3" font-family="Times,serif" font-size="14.00">Cast</text>
</g>
<!-- CTDCast -->
<g id="node4" class="node"><title>CTDCast</title>
<ellipse fill="none" stroke="black" cx="44" cy="-18" rx="44.2946" ry="18"/>
<text text-anchor="middle" x="44" y="-14.3" font-family="Times,serif" font-size="14.00">CTDCast</text>
</g>
<!-- Cast&#45;&gt;CTDCast -->
<g id="edge1" class="edge"><title>Cast&#45;&gt;CTDCast</title>
<path fill="none" stroke="black" d="M124.069,-71.8761C109.211,-62.064 90.4728,-49.6896 74.8597,-39.379"/>
<polygon fill="black" stroke="black" points="76.3544,-36.1718 66.081,-33.5818 72.4969,-42.0131 76.3544,-36.1718"/>
</g>
<!-- XBTCast -->
<g id="node5" class="node"><title>XBTCast</title>
<ellipse fill="none" stroke="black" cx="150" cy="-18" rx="44.2946" ry="18"/>
<text text-anchor="middle" x="150" y="-14.3" font-family="Times,serif" font-size="14.00">XBTCast</text>
</g>
<!-- Cast&#45;&gt;XBTCast -->
<g id="edge2" class="edge"><title>Cast&#45;&gt;XBTCast</title>
<path fill="none" stroke="black" d="M150,-71.6966C150,-63.9827 150,-54.7125 150,-46.1124"/>
<polygon fill="black" stroke="black" points="153.5,-46.1043 150,-36.1043 146.5,-46.1044 153.5,-46.1043"/>
</g>
<!-- LADCP -->
<g id="node6" class="node"><title>LADCP</title>
<ellipse fill="none" stroke="black" cx="252" cy="-18" rx="39.4691" ry="18"/>
<text text-anchor="middle" x="252" y="-14.3" font-family="Times,serif" font-size="14.00">LADCP</text>
</g>
<!-- Cast&#45;&gt;LADCP -->
<g id="edge3" class="edge"><title>Cast&#45;&gt;LADCP</title>
<path fill="none" stroke="black" d="M174.952,-71.8761C189.348,-61.9963 207.53,-49.5188 222.615,-39.166"/>
<polygon fill="black" stroke="black" points="224.823,-41.8959 231.088,-33.3517 220.862,-36.1243 224.823,-41.8959"/>
</g>
<!-- CastCollection -->
<g id="node2" class="node"><title>CastCollection</title>
<polygon fill="none" stroke="black" points="292.25,-108 195.75,-108 195.75,-72 292.25,-72 292.25,-108"/>
<text text-anchor="middle" x="244" y="-86.3" font-family="Times,serif" font-size="14.00">CastCollection</text>
</g>
<!-- Bathymetry2d -->
<g id="node3" class="node"><title>Bathymetry2d</title>
<polygon fill="none" stroke="black" points="405.25,-108 310.75,-108 310.75,-72 405.25,-72 405.25,-108"/>
<text text-anchor="middle" x="358" y="-86.3" font-family="Times,serif" font-size="14.00">Bathymetry2d</text>
</g>
</g>
</svg>
